<svg id="Layer_1" data-name="Layer 1" xmlns="http://www.w3.org/2000/svg" viewBox="0 0 180 31.47"><defs><style>.cls-1{fill:#ffde17;}</style></defs><title>icons</title><polygon class="cls-1" points="16.55 0 21.66 10.36 33.09 12.02 24.82 20.08 26.77 31.47 16.55 26.09 6.32 31.47 8.27 20.08 0 12.02 11.43 10.36 16.55 0"/><polygon class="cls-1" points="53.27 0 58.38 10.36 69.82 12.02 61.55 20.08 63.5 31.47 53.27 26.09 43.05 31.47 45 20.08 36.73 12.02 48.16 10.36 53.27 0"/><polygon class="cls-1" points="90 0 95.11 10.36 106.55 12.02 98.27 20.08 100.22 31.47 90 26.09 79.78 31.47 81.73 20.08 73.45 12.02 84.89 10.36 90 0"/><polygon class="cls-1" points="126.73 0 131.84 10.36 143.27 12.02 135 20.08 136.95 31.47 126.73 26.09 116.5 31.47 118.45 20.08 110.18 12.02 121.61 10.36 126.73 0"/><polygon class="cls-1" points="163.46 0 168.57 10.36 180 12.02 171.73 20.08 173.68 31.47 163.46 26.09 153.23 31.47 155.18 20.08 146.91 12.02 158.34 10.36 163.46 0"/></svg>