<svg id="Layer_1" data-name="Layer 1" xmlns="http://www.w3.org/2000/svg" viewBox="0 0 180 31.47"><defs><style>.cls-1{fill:#a7a9ac;}</style></defs><title>icons</title><polygon class="cls-1" points="16.55 1.47 21.18 10.86 31.55 12.37 24.05 19.68 25.82 30 16.55 25.13 7.27 30 9.04 19.68 1.54 12.37 11.91 10.86 16.55 1.47"/><polygon class="cls-1" points="53.27 1.47 57.91 10.86 68.27 12.37 60.77 19.68 62.54 30 53.27 25.13 44 30 45.77 19.68 38.27 12.37 48.64 10.86 53.27 1.47"/><polygon class="cls-1" points="90 1.47 94.64 10.86 105 12.37 97.5 19.68 99.27 30 90 25.13 80.73 30 82.5 19.68 75 12.37 85.36 10.86 90 1.47"/><polygon class="cls-1" points="126.73 1.47 131.36 10.86 141.73 12.37 134.23 19.68 136 30 126.73 25.13 117.46 30 119.23 19.68 111.73 12.37 122.09 10.86 126.73 1.47"/><polygon class="cls-1" points="163.46 1.47 168.09 10.86 178.46 12.37 170.96 19.68 172.73 30 163.46 25.13 154.19 30 155.96 19.68 148.46 12.37 158.82 10.86 163.46 1.47"/></svg>