<svg id="Layer_1" data-name="Layer 1" xmlns="http://www.w3.org/2000/svg" viewBox="0 0 349.75 32.21"><defs><style>.cls-1{fill:#707071;}</style></defs><title>dummy-logo</title><path class="cls-1" d="M14.3,38.83a15.29,15.29,0,0,1-6.14-5.72,15.79,15.79,0,0,1-2.22-8.34,15.8,15.8,0,0,1,2.22-8.34,15.3,15.3,0,0,1,6.14-5.72,18.71,18.71,0,0,1,8.8-2,19.32,19.32,0,0,1,8,1.58,14.86,14.86,0,0,1,5.81,4.58l-6.56,5.85a8.41,8.41,0,0,0-6.73-3.61,6.87,6.87,0,0,0-5.24,2.09,7.82,7.82,0,0,0-2,5.61,7.82,7.82,0,0,0,2,5.61,6.87,6.87,0,0,0,5.24,2.09,8.41,8.41,0,0,0,6.73-3.61l6.56,5.85a14.86,14.86,0,0,1-5.81,4.58,19.32,19.32,0,0,1-8,1.58A18.71,18.71,0,0,1,14.3,38.83Z" transform="translate(-5.94 -8.66)"/><path class="cls-1" d="M45.59,38.8a15.43,15.43,0,0,1-8.45-14,15.42,15.42,0,0,1,8.45-14,19,19,0,0,1,8.93-2.07,19,19,0,0,1,8.93,2.07,15.42,15.42,0,0,1,8.45,14,15.43,15.43,0,0,1-8.45,14,19,19,0,0,1-8.93,2.07A19,19,0,0,1,45.59,38.8ZM58,31.52a6.77,6.77,0,0,0,2.49-2.68,8.55,8.55,0,0,0,.92-4.07,8.55,8.55,0,0,0-.92-4.07A6.78,6.78,0,0,0,58,18a6.94,6.94,0,0,0-7,0,6.78,6.78,0,0,0-2.49,2.68,8.55,8.55,0,0,0-.92,4.07,8.55,8.55,0,0,0,.92,4.07A6.76,6.76,0,0,0,51,31.52a6.94,6.94,0,0,0,7,0Z" transform="translate(-5.94 -8.66)"/><path class="cls-1" d="M101.42,40.17l-.09-14L94.65,37.39H90.07L83.38,26.61V40.17H73.92V9.37h8.54l10,16.41,9.77-16.41h8.54l.09,30.8Z" transform="translate(-5.94 -8.66)"/><path class="cls-1" d="M136.4,10.77A10.65,10.65,0,0,1,143,21a10.66,10.66,0,0,1-6.6,10.21A18.19,18.19,0,0,1,129,32.6h-4.44v7.57H114.14V9.37H129A18.19,18.19,0,0,1,136.4,10.77Zm-4.93,12.87A3.39,3.39,0,0,0,132.53,21a3.39,3.39,0,0,0-1.06-2.66,4.62,4.62,0,0,0-3.17-.95h-3.78v7.22h3.78A4.61,4.61,0,0,0,131.47,23.64Z" transform="translate(-5.94 -8.66)"/><path class="cls-1" d="M162.32,34.8h-11.7l-2.07,5.37H138l13.46-30.8h10.21l13.46,30.8H164.39Zm-2.86-7.48-3-7.74-3,7.74Z" transform="translate(-5.94 -8.66)"/><path class="cls-1" d="M206.27,9.37v30.8h-8.54l-11.7-14v14H175.91V9.37h8.54l11.7,14v-14Z" transform="translate(-5.94 -8.66)"/><path class="cls-1" d="M229.59,29V40.17H219.21V28.86L207.59,9.37h11L224.84,20l6.34-10.65h10Z" transform="translate(-5.94 -8.66)"/><path class="cls-1" d="M244.86,9.37h2.24l-5.76,28.78h17.73l-.44,2H238.7Z" transform="translate(-5.94 -8.66)"/><path class="cls-1" d="M264,38.8a11.16,11.16,0,0,1-4.82-4.44,13.06,13.06,0,0,1-1.65-6.64,19.36,19.36,0,0,1,2.27-9.26,17.3,17.3,0,0,1,6.47-6.78A18.44,18.44,0,0,1,276,9.15a17,17,0,0,1,7.63,1.58,11.14,11.14,0,0,1,4.84,4.44,13.07,13.07,0,0,1,1.65,6.64,19.21,19.21,0,0,1-2.29,9.26,17.45,17.45,0,0,1-6.49,6.78,18.44,18.44,0,0,1-9.7,2.53A16.85,16.85,0,0,1,264,38.8Zm16.19-2.71a15.14,15.14,0,0,0,5.63-6,17.36,17.36,0,0,0,2-8.21,10.15,10.15,0,0,0-3.1-7.81q-3.1-2.88-8.91-2.88a15.77,15.77,0,0,0-8.36,2.22,15.3,15.3,0,0,0-5.65,6,17.18,17.18,0,0,0-2,8.21,10.12,10.12,0,0,0,3.12,7.79q3.12,2.9,8.93,2.9A15.76,15.76,0,0,0,280.19,36.1Z" transform="translate(-5.94 -8.66)"/><path class="cls-1" d="M317.88,10.25a10.56,10.56,0,0,1,4.51,3.17l-1.58,1.41q-3.08-3.61-9.59-3.61a16.48,16.48,0,0,0-8.56,2.2,15.15,15.15,0,0,0-5.74,6,17.13,17.13,0,0,0-2,8.25A10.07,10.07,0,0,0,298,35.44q3.15,2.88,9,2.88a14.07,14.07,0,0,0,8.62-2.82l2.16-10.6H320l-2.33,11.57a15,15,0,0,1-4.91,2.88,17.26,17.26,0,0,1-6,1,17,17,0,0,1-7.63-1.58,11.26,11.26,0,0,1-4.86-4.44,12.92,12.92,0,0,1-1.67-6.64,19.29,19.29,0,0,1,2.29-9.31,17.19,17.19,0,0,1,6.53-6.75,19.06,19.06,0,0,1,9.88-2.51A18,18,0,0,1,317.88,10.25Z" transform="translate(-5.94 -8.66)"/><path class="cls-1" d="M329.6,38.8a11.16,11.16,0,0,1-4.82-4.44,13.06,13.06,0,0,1-1.65-6.64,19.36,19.36,0,0,1,2.27-9.26,17.3,17.3,0,0,1,6.47-6.78,18.44,18.44,0,0,1,9.7-2.53,17,17,0,0,1,7.63,1.58A11.14,11.14,0,0,1,354,15.17a13.07,13.07,0,0,1,1.65,6.64,19.21,19.21,0,0,1-2.29,9.26,17.45,17.45,0,0,1-6.49,6.78,18.44,18.44,0,0,1-9.7,2.53A16.85,16.85,0,0,1,329.6,38.8ZM345.8,36.1a15.14,15.14,0,0,0,5.63-6,17.36,17.36,0,0,0,2-8.21,10.15,10.15,0,0,0-3.1-7.81q-3.1-2.88-8.91-2.88A15.77,15.77,0,0,0,333,13.44a15.3,15.3,0,0,0-5.65,6,17.18,17.18,0,0,0-2,8.21,10.12,10.12,0,0,0,3.12,7.79q3.12,2.9,8.93,2.9A15.76,15.76,0,0,0,345.8,36.1Z" transform="translate(-5.94 -8.66)"/></svg>