<svg id="Layer_1" data-name="Layer 1" xmlns="http://www.w3.org/2000/svg" viewBox="0 0 124 77"><defs><style>.cls-1{fill:#939598;}.cls-2{fill:#6d6e71;}.cls-3{fill:#2795d2;}</style></defs><title>iptv-brands-logo-final-OL-grey</title><path class="cls-1" d="M90.35,13.09V23.42H108.7V13.09Zm3.49,7.45h-1.5V16.11h1.5Zm11.49,0h-1.47l-1.46-3.46v.19h-1.3v3.28h-1.5V17.27H98.38a1.73,1.73,0,0,1,.08.51,1.53,1.53,0,0,1-1,1.47,2.62,2.62,0,0,1-1.07.2H95.8v1.09H94.3V16.11h2.14a2.62,2.62,0,0,1,1.07.2,1.58,1.58,0,0,1,.7.58,1.47,1.47,0,0,1,.08.18v-1h5.29l1.06,2.59,1.08-2.59h1.47Z"/><path class="cls-1" d="M96.34,17.26H95.8v1h.55a.67.67,0,0,0,.46-.14.56.56,0,0,0,0-.77A.67.67,0,0,0,96.34,17.26Z"/><path class="cls-1" d="M35.47,50.66l-.91,4.54h-.8l.59-3-1.94,2.46H32l-1-2.52-.6,3h-.8l.91-4.54h.69l1.2,3,2.36-3Z"/><path class="cls-1" d="M37.16,55a1.75,1.75,0,0,1-.75-.68,2,2,0,0,1-.26-1,2.81,2.81,0,0,1,.35-1.39,2.53,2.53,0,0,1,1-1,2.9,2.9,0,0,1,1.45-.36,2.59,2.59,0,0,1,1.17.24,1.75,1.75,0,0,1,.75.68,2,2,0,0,1,.26,1,2.81,2.81,0,0,1-.35,1.39,2.53,2.53,0,0,1-1,1,2.9,2.9,0,0,1-1.45.36A2.59,2.59,0,0,1,37.16,55Zm2.21-.76a1.78,1.78,0,0,0,.66-.71,2.08,2.08,0,0,0,.23-1,1.19,1.19,0,0,0-.37-.91,1.47,1.47,0,0,0-1-.34,1.82,1.82,0,0,0-1,.26,1.76,1.76,0,0,0-.65.71,2.1,2.1,0,0,0-.23,1,1.19,1.19,0,0,0,.36.91,1.45,1.45,0,0,0,1,.34A1.82,1.82,0,0,0,39.37,54.26Z"/><path class="cls-1" d="M46.69,50.66,43.8,55.2H43L41.9,50.66h.87l.81,3.49,2.23-3.49Z"/><path class="cls-1" d="M47.44,50.66h.84l-.91,4.54h-.84Z"/><path class="cls-1" d="M53.8,50.66l-.91,4.54h-.69L50.33,52l-.64,3.18h-.84l.91-4.54h.69l1.87,3.18L53,50.66Z"/><path class="cls-1" d="M57.95,52.88h.8l-.37,1.83a2.63,2.63,0,0,1-.78.41,2.87,2.87,0,0,1-.91.15A2.64,2.64,0,0,1,55.51,55a1.8,1.8,0,0,1-.77-.68,1.9,1.9,0,0,1-.27-1,2.78,2.78,0,0,1,.35-1.39,2.54,2.54,0,0,1,1-1,3,3,0,0,1,1.48-.36,2.8,2.8,0,0,1,1.08.19,1.81,1.81,0,0,1,.75.56l-.61.51a1.32,1.32,0,0,0-.53-.39,1.94,1.94,0,0,0-.73-.12,2,2,0,0,0-1,.26,1.79,1.79,0,0,0-.68.7,2,2,0,0,0-.24,1,1.17,1.17,0,0,0,.38.92,1.56,1.56,0,0,0,1.08.34,1.87,1.87,0,0,0,.88-.21Z"/><path class="cls-1" d="M65.63,51a1.22,1.22,0,0,1,.45,1,1.83,1.83,0,0,1-.26,1,1.7,1.7,0,0,1-.75.64,2.75,2.75,0,0,1-1.15.22H62.81l-.27,1.31H61.7l.91-4.54h1.75A2,2,0,0,1,65.63,51ZM64.9,52.9a1,1,0,0,0,.33-.8.64.64,0,0,0-.25-.55,1.19,1.19,0,0,0-.72-.18h-1l-.36,1.8h1A1.46,1.46,0,0,0,64.9,52.9Z"/><path class="cls-1" d="M70.65,53.14a1.81,1.81,0,0,1-1,.63l.81,1.44h-.9l-.75-1.33H67.71l-.26,1.33H66.6l.91-4.54h1.77a2,2,0,0,1,1.28.36A1.22,1.22,0,0,1,71,52,1.75,1.75,0,0,1,70.65,53.14Zm-.84-.23a1,1,0,0,0,.34-.8.64.64,0,0,0-.25-.55,1.19,1.19,0,0,0-.72-.18h-1l-.36,1.8h1A1.47,1.47,0,0,0,69.82,52.9Z"/><path class="cls-1" d="M72.72,55a1.75,1.75,0,0,1-.75-.68,2,2,0,0,1-.26-1,2.81,2.81,0,0,1,.35-1.39,2.53,2.53,0,0,1,1-1,2.9,2.9,0,0,1,1.45-.36,2.59,2.59,0,0,1,1.17.24,1.75,1.75,0,0,1,.75.68,2,2,0,0,1,.26,1,2.81,2.81,0,0,1-.35,1.39,2.53,2.53,0,0,1-1,1,2.9,2.9,0,0,1-1.45.36A2.59,2.59,0,0,1,72.72,55Zm2.21-.76a1.78,1.78,0,0,0,.66-.71,2.08,2.08,0,0,0,.23-1,1.19,1.19,0,0,0-.37-.91,1.47,1.47,0,0,0-1-.34,1.82,1.82,0,0,0-1,.26,1.76,1.76,0,0,0-.65.71,2.1,2.1,0,0,0-.23,1,1.19,1.19,0,0,0,.36.91,1.45,1.45,0,0,0,1,.34A1.82,1.82,0,0,0,74.93,54.26Z"/><path class="cls-1" d="M78.24,50.66h1.84a2.8,2.8,0,0,1,1.18.23,1.72,1.72,0,0,1,.76.65,1.84,1.84,0,0,1,.26,1,2.72,2.72,0,0,1-.35,1.4,2.4,2.4,0,0,1-1,.93,3.19,3.19,0,0,1-1.48.33H77.33Zm1.24,3.83a2.1,2.1,0,0,0,1-.25,1.7,1.7,0,0,0,.68-.68,2,2,0,0,0,.24-1,1.12,1.12,0,0,0-.37-.89A1.6,1.6,0,0,0,80,51.37h-1l-.62,3.12Z"/><path class="cls-1" d="M83.73,54.85a1.45,1.45,0,0,1-.47-1.14,2.61,2.61,0,0,1,.05-.49l.51-2.56h.84l-.51,2.55a2.49,2.49,0,0,0,0,.4.87.87,0,0,0,.26.68,1.09,1.09,0,0,0,.75.23,1.2,1.2,0,0,0,.87-.32,1.92,1.92,0,0,0,.47-1L87,50.66h.83l-.52,2.6a2.64,2.64,0,0,1-.77,1.5,2.14,2.14,0,0,1-1.48.5A1.9,1.9,0,0,1,83.73,54.85Z"/><path class="cls-1" d="M89.46,55a1.78,1.78,0,0,1-.76-.68,1.93,1.93,0,0,1-.27-1,2.78,2.78,0,0,1,.35-1.39,2.55,2.55,0,0,1,1-1,2.91,2.91,0,0,1,1.46-.36,2.61,2.61,0,0,1,1,.19,1.47,1.47,0,0,1,.68.56l-.61.51a1.35,1.35,0,0,0-1.17-.53,1.88,1.88,0,0,0-1,.26,1.77,1.77,0,0,0-.66.7,2.07,2.07,0,0,0-.23,1,1.18,1.18,0,0,0,.37.92,1.51,1.51,0,0,0,1.05.34A1.72,1.72,0,0,0,92,54l.49.53a2,2,0,0,1-.8.55,2.92,2.92,0,0,1-1.05.18A2.65,2.65,0,0,1,89.46,55Z"/><path class="cls-1" d="M95,51.37H93.45l.14-.71h3.86l-.15.71H95.79L95,55.2h-.84Z"/><polygon class="cls-2" points="5.15 62 8.85 8.4 3.55 8.46 0.32 70.57 13.07 70.47 12.51 62.51 5.15 62"/><polygon class="cls-2" points="123.68 69.23 119.47 9.34 115.31 69.6 111.26 69.32 13.07 70.47 13.53 76.97 123.68 69.23"/><polygon class="cls-1" points="12.51 62.51 13.07 70.47 111.26 69.32 12.51 62.51"/><polygon class="cls-2" points="9.43 0.03 8.85 8.4 113.04 7.18 9.43 0.03"/><polygon class="cls-3" points="116.81 7.44 113.97 7.25 113.97 7.64 116.81 7.44"/><polygon class="cls-1" points="12.51 62.51 9.17 15.01 113.97 7.64 113.97 7.25 113.04 7.18 8.85 8.4 5.15 62 12.51 62.51"/><polygon class="cls-1" points="114.69 69.28 111.26 69.32 115.31 69.6 119.78 7.25 113.97 7.64 114.69 69.28"/><path class="cls-1" d="M32.51,38.37a3.41,3.41,0,0,1,.69,2.15,3.27,3.27,0,0,1-1.54,2.89,8.07,8.07,0,0,1-4.46,1h-8V30.23h7.59a7.49,7.49,0,0,1,4.29,1,3.14,3.14,0,0,1,1.45,2.7,3.29,3.29,0,0,1-.5,1.79A3.56,3.56,0,0,1,30.56,37,4.26,4.26,0,0,1,32.51,38.37Zm-8.6-4.79v2.11h2.23q1.56,0,1.56-1.05t-1.56-1.05ZM28.37,40q0-1.12-1.58-1.12H23.91v2.23h2.88Q28.37,41.08,28.37,40Z"/><path class="cls-1" d="M40.56,40.86h-1.3v3.57H34.48V30.23h6.84a8.39,8.39,0,0,1,3.43.65,5.25,5.25,0,0,1,2.35,7.36,4.87,4.87,0,0,1-2,1.81l3,4.38H43Zm1.91-6.5A2.13,2.13,0,0,0,41,33.92H39.26v3.33H41a2.13,2.13,0,0,0,1.46-.44,1.79,1.79,0,0,0,0-2.45Z"/><path class="cls-1" d="M59.08,42h-5.4l-1,2.47H47.86l6.21-14.2h4.71L65,44.43H60Zm-1.32-3.45-1.38-3.57L55,38.51Z"/><path class="cls-1" d="M79.75,30.23v14.2H75.82L70.42,38v6.45H65.76V30.23h3.94l5.4,6.45V30.23Z"/><path class="cls-1" d="M80.87,30.23h7a9.66,9.66,0,0,1,4.19.86,6.56,6.56,0,0,1,2.82,2.46,7.59,7.59,0,0,1,0,7.55,6.56,6.56,0,0,1-2.82,2.46,9.66,9.66,0,0,1-4.19.86h-7Zm6.8,10.47a3.42,3.42,0,0,0,2.46-.88,3.28,3.28,0,0,0,.92-2.48,3.28,3.28,0,0,0-.92-2.48A3.42,3.42,0,0,0,87.66,34h-2V40.7Z"/><path class="cls-1" d="M98.67,44.36a9.21,9.21,0,0,1-2.75-1.07l1.54-3.49a9.8,9.8,0,0,0,2.27.94,8.88,8.88,0,0,0,2.41.35,3.74,3.74,0,0,0,1.42-.19.62.62,0,0,0,.43-.58q0-.45-.56-.67a12,12,0,0,0-1.84-.49,20.81,20.81,0,0,1-2.74-.74A4.66,4.66,0,0,1,97,37.14a3.52,3.52,0,0,1-.81-2.44,4.21,4.21,0,0,1,.75-2.43,5,5,0,0,1,2.24-1.72,9.31,9.31,0,0,1,3.62-.63,13.15,13.15,0,0,1,2.87.31,9,9,0,0,1,2.48.92l-1.44,3.47a8.81,8.81,0,0,0-4-1.05q-1.85,0-1.85.89,0,.43.55.64a11.56,11.56,0,0,0,1.81.46,18.58,18.58,0,0,1,2.74.7,4.77,4.77,0,0,1,1.94,1.29,3.46,3.46,0,0,1,.82,2.43,4.17,4.17,0,0,1-.75,2.42,5.05,5.05,0,0,1-2.24,1.72,9.18,9.18,0,0,1-3.62.64A14.91,14.91,0,0,1,98.67,44.36Z"/></svg>